<svg xmlns="http://www.w3.org/2000/svg" viewBox="0 0 32 32" width="32" height="32">
  <defs>
    <linearGradient id="bg" x1="0" y1="0" x2="1" y2="1">
      <stop offset="0" stop-color="#14b8a6"/>
      <stop offset="1" stop-color="#0b3d4f"/>
    </linearGradient>
  </defs>
  <rect x="0" y="0" width="32" height="32" rx="7" fill="url(#bg)"/>
  <g transform="translate(6 6)">
    <path d="M 14.943 10 C 17.674 10 19.889 12.218 19.889 14.953 C 19.889 17.687 17.674 19.905 14.943 19.905 L 5.057 19.905 C 2.326 19.905 0.111 17.687 0.111 14.953 C 0.111 12.218 2.326 10 5.057 10 C 2.326 10 0.111 7.782 0.111 5.047 C 0.111 2.313 2.326 0.095 5.057 0.095 L 14.943 0.095 C 17.674 0.095 19.889 2.313 19.889 5.047 C 19.889 7.782 17.674 10 14.943 10 Z" fill="#ffffff"/>
  </g>
</svg>
